# xmcd
#
# Track frame offsets: 
#        150
#        11929
#        23390
#        52202
#        69603
#        106373
#        119905
#        137743
#        161006
#        171800
#        183249
#        196412
#        211409
#        222935
#        241849
#        266174
#        278565
#        288714
#        306587
#
# Disc length: 4289 seconds
#
# Revision: 0
# Processed by: cddbd v1.5.2PL0 Copyright (c) Steve Scherf et al.
# Submitted via: ExactAudioCopyFreeDBPlugin 1.0
#
DISCID=2e10bf13
DTITLE=Various Artist - Cosmic Country [CD1]
DYEAR=2013
DGENRE=Country
TTITLE0=The Lovin' Spoonful  - Butchie's Tune
TTITLE1=The Beau Brummels  - Deep Water
TTITLE2=The Charlatans  - Alabama Bound
TTITLE3=Dillard and Clark  - Don’t Let Me Down
TTITLE4=David Crosby  - Cowboy Movie 
TTITLE5=The Everly Brothers  -  I Wonder If I Care as Much
TTITLE6=The Band  - Whispering Pines
TTITLE7=The Byrds  - Chestnut Mare
TTITLE8=Jesse Davis  - Tulsa County
TTITLE9=Little Feat  - Truck Stop Girl
TTITLE10=Dillards - Close the Door Lightly (When You Go)
TTITLE11=The Grateful Dead   - Sugar Magnolia
TTITLE12=The Monkees - Some of Shelly's Blues
TTITLE13=The Flying Burrito Brothers  - Sin City 
TTITLE14=Delaney, Bonnie and Friends  - Do Right Woman, Do Right Man
TTITLE15=Vern Gosdin  - Catch the Wind
TTITLE16=Bob Dylan and The Band  - Yea! Heavy and a Bottle of Bread
TTITLE17=Jerry Jeff Walker  - Mr. Bojangles 
TTITLE18=Jim Ford  - Harry Hippie
EXTD=
EXTT0=
EXTT1=
EXTT2=
EXTT3=
EXTT4=
EXTT5=
EXTT6=
EXTT7=
EXTT8=
EXTT9=
EXTT10=
EXTT11=
EXTT12=
EXTT13=
EXTT14=
EXTT15=
EXTT16=
EXTT17=
EXTT18=
PLAYORDER=
